<svg width="17" height="18" viewBox="0 0 17 18" fill="none" xmlns="http://www.w3.org/2000/svg">
<path d="M5.28571 17H11.7143C14.0811 17 16 14.9531 16 12.4286V5.57143C16 3.04686 14.0811 1 11.7143 1H5.28571C2.91893 1 1 3.04686 1 5.57143V12.4286C1 14.9531 2.91893 17 5.28571 17Z" stroke="white" stroke-width="2" stroke-miterlimit="10"/>
<path d="M8.49999 5.19048C7.55279 5.19048 6.64438 5.59183 5.97461 6.30626C5.30483 7.02068 4.92856 7.98965 4.92856 9C4.92856 10.0103 5.30483 10.9793 5.97461 11.6937C6.64438 12.4082 7.55279 12.8095 8.49999 12.8095C9.44719 12.8095 10.3556 12.4082 11.0254 11.6937C11.6951 10.9793 12.0714 10.0103 12.0714 9C12.0714 7.98965 11.6951 7.02068 11.0254 6.30626C10.3556 5.59183 9.44719 5.19048 8.49999 5.19048Z" stroke="white" stroke-width="2" stroke-miterlimit="10"/>
<path d="M12.7857 3.66666C12.5963 3.66666 12.4146 3.74693 12.2807 3.88981C12.1467 4.0327 12.0714 4.22649 12.0714 4.42856C12.0714 4.63063 12.1467 4.82442 12.2807 4.96731C12.4146 5.11019 12.5963 5.19047 12.7857 5.19047C12.9752 5.19047 13.1568 5.11019 13.2908 4.96731C13.4248 4.82442 13.5 4.63063 13.5 4.42856C13.5 4.22649 13.4248 4.0327 13.2908 3.88981C13.1568 3.74693 12.9752 3.66666 12.7857 3.66666Z" fill="white"/>
</svg>
