<svg width="21" height="19" viewBox="0 0 21 19" fill="none" xmlns="http://www.w3.org/2000/svg">
<path d="M18.5389 1.10874C17.966 1.33909 5.88495 6.54194 1.7242 8.33204C1.4811 8.43659 1 8.59554 1 9.11404C1 9.53054 1.3128 9.73624 1.6732 9.88329C2.58355 10.2547 5.93255 11.6249 5.93255 11.6249C5.93255 11.6249 7.1285 15.285 7.3767 16.0874C7.6249 16.8907 7.82465 16.9094 7.82465 16.9094C7.8799 16.934 7.93345 16.9434 7.9836 16.9434C8.1434 16.9434 8.26665 16.8482 8.26665 16.8482L11.3878 14.1486L15.0496 17.6123C15.0496 17.6123 15.4134 17.9999 15.8155 17.9999C16.3051 17.9999 16.6595 17.501 16.7216 17.1763C16.8074 16.7224 19.649 2.13639 19.649 2.13639C19.9065 0.960843 19.1424 0.864793 18.5389 1.10874Z" stroke="white" stroke-width="2" stroke-miterlimit="10"/>
<path d="M15.3361 5.24995C15.206 5.24995 15.0309 5.3766 14.9374 5.4361C13.5987 6.2895 6.88877 10.1936 5.04852 11.2629C5.56702 11.4753 5.93252 11.625 5.93252 11.625C5.93252 11.625 7.12847 15.285 7.37667 16.0874C7.62487 16.8907 7.82462 16.9094 7.82462 16.9094C7.87987 16.934 7.93342 16.9434 7.98357 16.9434C8.02437 16.9434 8.05242 16.9289 8.08642 16.9187L9.30957 12.0228C9.30957 12.0228 14.8822 6.2555 15.2179 5.91975C15.4882 5.65115 15.5443 5.55595 15.5443 5.4633C15.5443 5.3392 15.4806 5.24995 15.3361 5.24995Z" fill="white"/>
</svg>
