<svg width="22" height="22" viewBox="0 0 22 22" fill="none" xmlns="http://www.w3.org/2000/svg">
<g clip-path="url(#clip0)">
<path d="M6.6 21.12H6.7694C6.7694 21.12 8.778 19.1818 9.46792 18.4276C9.69848 18.176 9.75172 18.0475 10.12 18.04C11.0616 18.0211 12.0032 17.9859 12.9435 17.9344C14.1759 17.8671 15.3903 17.7478 16.5348 17.27C17.5252 16.8564 18.3115 16.2096 18.7994 15.22C19.3235 14.157 19.6046 13.0293 19.7102 11.8483C19.8898 9.84236 19.8251 7.85576 19.2795 5.90656C18.9724 4.80964 18.3718 3.91424 17.4337 3.26788C16.295 2.48336 14.9899 2.178 13.6629 1.98C12.1145 1.74944 10.5591 1.67816 8.99316 1.87C7.85708 2.00904 6.75444 2.2396 5.70856 2.72008C4.04976 3.48216 2.93568 4.70756 2.59776 6.56216C2.44684 7.3898 2.32628 8.22712 2.2572 9.06576C2.12388 10.6876 2.20792 12.3002 2.66024 13.8736C3.0118 15.0968 3.63396 16.141 4.7256 16.8274C5.11984 17.0751 5.77852 17.2388 6.20136 17.435C6.46976 17.5591 6.60396 17.7118 6.6 18.04C6.58768 19.081 6.6 21.12 6.6 21.12Z" stroke="white" stroke-width="2" stroke-miterlimit="10"/>
<path d="M5.28 7.09192C5.30244 6.05792 6.09532 5.47668 6.89612 5.30024C7.20236 5.23248 7.47296 5.34072 7.70044 5.55764C8.32876 6.15736 8.82552 6.85256 9.19996 7.63268C9.36408 7.97456 9.29016 8.27772 9.0112 8.53204C8.95356 8.58484 8.89284 8.63412 8.83036 8.6812C8.19412 9.15992 8.1004 9.5216 8.43964 10.2419C9.0178 11.4677 9.97524 12.2905 11.2152 12.8009C11.5421 12.9356 11.8492 12.8691 12.0991 12.6042C12.1326 12.5686 12.1704 12.5347 12.195 12.4938C12.6839 11.6785 13.3927 11.7594 14.047 12.2245C14.4769 12.5303 14.8949 12.852 15.3199 13.1639C15.9676 13.6396 15.9619 14.0866 15.5681 14.7303C15.2803 15.2007 14.8496 15.5263 14.3422 15.7384C13.9718 15.8932 13.5934 15.8607 13.2282 15.7058C10.1622 14.4087 7.75896 12.364 6.16968 9.42524C5.84232 8.8198 5.6144 8.16068 5.35348 7.52092C5.2998 7.39024 5.30288 7.2358 5.28 7.09192Z" fill="white"/>
<path d="M14.4782 9.68C14.5059 9.51632 14.52 9.34868 14.52 9.17708C14.52 7.5108 13.1692 6.16 11.5029 6.16C11.3318 6.16 11.1637 6.17408 11 6.2018M13.2 9.24C13.2 8.26804 12.412 7.48 11.44 7.48L13.2 9.24Z" stroke="white" stroke-width="2" stroke-miterlimit="10" stroke-linecap="round"/>
<path d="M15.723 10.12C15.7929 9.81112 15.8299 9.48992 15.8299 9.15992C15.8299 6.77424 13.8957 4.84 11.51 4.84C11.18 4.84 10.8588 4.87696 10.5499 4.94692" stroke="white" stroke-width="2" stroke-miterlimit="10" stroke-linecap="round"/>
</g>
<defs>
<clipPath id="clip0">
<rect width="22" height="22" fill="white"/>
</clipPath>
</defs>
</svg>
